<svg xmlns="http://www.w3.org/2000/svg" xmlns:xlink="http://www.w3.org/1999/xlink" version="1.1" width="256" height="256" viewBox="0 0 256 256" xml:space="preserve">

<defs>
</defs>
<g style="stroke: none; stroke-width: 0; stroke-dasharray: none; stroke-linecap: butt; stroke-linejoin: miter; stroke-miterlimit: 10; fill: none; fill-rule: nonzero; opacity: 1;" transform="translate(1.4065934065934016 1.4065934065934016) scale(2.81 2.81)" >
	<path d="M 90 45.625 c 0 -6.4 -3.1 -11.45 -9.025 -11.45 c -5.95 0 -9.55 5.05 -9.55 11.4 c 0 7.525 4.25 11.325 10.35 11.325 c 2.975 0 5.225 -0.675 6.925 -1.625 v -5 c -1.7 0.85 -3.65 1.375 -6.125 1.375 c -2.425 0 -4.575 -0.85 -4.85 -3.8 H 89.95 C 89.95 47.525 90 46.225 90 45.625 z M 77.65 43.25 c 0 -2.825 1.725 -4 3.3 -4 c 1.525 0 3.15 1.175 3.15 4 H 77.65 z" style="stroke: none; stroke-width: 1; stroke-dasharray: none; stroke-linecap: butt; stroke-linejoin: miter; stroke-miterlimit: 10; fill: rgb(99,91,255); fill-rule: nonzero; opacity: 1;" transform=" matrix(1 0 0 1 0 0) " stroke-linecap="round" />
	<path d="M 61.775 34.175 c -2.45 0 -4.025 1.15 -4.9 1.95 l -0.325 -1.55 h -5.5 v 29.15 L 57.3 62.4 l 0.025 -7.075 c 0.9 0.65 2.225 1.575 4.425 1.575 c 4.475 0 8.55 -3.6 8.55 -11.525 C 70.275 38.125 66.15 34.175 61.775 34.175 z M 60.275 51.4 c -1.475 0 -2.35 -0.525 -2.95 -1.175 L 57.3 40.95 c 0.65 -0.725 1.55 -1.225 2.975 -1.225 c 2.275 0 3.85 2.55 3.85 5.825 C 64.125 48.9 62.575 51.4 60.275 51.4 z" style="stroke: none; stroke-width: 1; stroke-dasharray: none; stroke-linecap: butt; stroke-linejoin: miter; stroke-miterlimit: 10; fill: rgb(99,91,255); fill-rule: nonzero; opacity: 1;" transform=" matrix(1 0 0 1 0 0) " stroke-linecap="round" />
	<polygon points="42.45,32.7 48.73,31.35 48.73,26.27 42.45,27.6 " style="stroke: none; stroke-width: 1; stroke-dasharray: none; stroke-linecap: butt; stroke-linejoin: miter; stroke-miterlimit: 10; fill: rgb(99,91,255); fill-rule: nonzero; opacity: 1;" transform="  matrix(1 0 0 1 0 0) "/>
	<rect x="42.45" y="34.6" rx="0" ry="0" width="6.28" height="21.88" style="stroke: none; stroke-width: 1; stroke-dasharray: none; stroke-linecap: butt; stroke-linejoin: miter; stroke-miterlimit: 10; fill: rgb(99,91,255); fill-rule: nonzero; opacity: 1;" transform=" matrix(1 0 0 1 0 0) "/>
	<path d="M 35.725 36.45 l -0.4 -1.85 h -5.4 v 21.875 h 6.25 V 41.65 c 1.475 -1.925 3.975 -1.575 4.75 -1.3 V 34.6 C 40.125 34.3 37.2 33.75 35.725 36.45 z" style="stroke: none; stroke-width: 1; stroke-dasharray: none; stroke-linecap: butt; stroke-linejoin: miter; stroke-miterlimit: 10; fill: rgb(99,91,255); fill-rule: nonzero; opacity: 1;" transform=" matrix(1 0 0 1 0 0) " stroke-linecap="round" />
	<path d="M 23.225 29.175 l -6.1 1.3 L 17.1 50.5 c 0 3.7 2.775 6.425 6.475 6.425 c 2.05 0 3.55 -0.375 4.375 -0.825 v -5.075 C 27.15 51.35 23.2 52.5 23.2 48.8 v -8.875 h 4.75 V 34.6 H 23.2 L 23.225 29.175 z" style="stroke: none; stroke-width: 1; stroke-dasharray: none; stroke-linecap: butt; stroke-linejoin: miter; stroke-miterlimit: 10; fill: rgb(99,91,255); fill-rule: nonzero; opacity: 1;" transform=" matrix(1 0 0 1 0 0) " stroke-linecap="round" />
	<path d="M 6.325 40.95 c 0 -0.975 0.8 -1.35 2.125 -1.35 c 1.9 0 4.3 0.575 6.2 1.6 v -5.875 c -2.075 -0.825 -4.125 -1.15 -6.2 -1.15 c -5.075 0 -8.45 2.65 -8.45 7.075 c 0 6.9 9.5 5.8 9.5 8.775 c 0 1.15 -1 1.525 -2.4 1.525 c -2.075 0 -4.725 -0.85 -6.825 -2 v 5.95 c 2.325 1 4.675 1.425 6.825 1.425 c 5.2 0 8.775 -2.575 8.775 -7.05 C 15.85 42.425 6.325 43.75 6.325 40.95 z" style="stroke: none; stroke-width: 1; stroke-dasharray: none; stroke-linecap: butt; stroke-linejoin: miter; stroke-miterlimit: 10; fill: rgb(99,91,255); fill-rule: nonzero; opacity: 1;" transform=" matrix(1 0 0 1 0 0) " stroke-linecap="round" />
</g>
</svg>